<svg width="25" height="26" viewBox="0 0 25 26" fill="none" xmlns="http://www.w3.org/2000/svg">
<g clip-path="url(#clip0_266_33)">
<path d="M12.5 0.521667C16.4128 0.521667 19.5848 3.61654 19.5848 7.43427C19.5848 11.252 16.4128 14.3469 12.5 14.3469C8.58727 14.3469 5.41536 11.252 5.41536 7.43427C5.41987 3.61832 8.5891 0.526069 12.4996 0.521667H12.5ZM12.5 13.2373C15.7848 13.2373 18.4475 10.6392 18.4475 7.4343C18.4475 4.22935 15.7848 1.63129 12.5 1.63129C9.21532 1.63129 6.55255 4.22938 6.55255 7.43432C6.55644 10.6377 9.2169 13.2336 12.4997 13.2374H12.5001L12.5 13.2373ZM23.881 25.5635L23.4602 23.2867C22.4759 18.1827 17.9431 14.373 12.4983 14.373C7.06011 14.373 2.53166 18.1736 1.55077 23.2011L1.53974 23.2689L1.11899 25.5413L0 25.3438L0.420769 23.0692C1.51134 17.451 6.50335 13.2595 12.4987 13.2595H12.5001H12.5C18.5009 13.2612 23.4957 17.4618 24.5662 23.0137L24.5781 23.0881L25 25.3671L23.881 25.5635Z" fill="black"/>
</g>
<defs>
<clipPath id="clip0_266_33">
<rect width="25" height="26" fill="white"/>
</clipPath>
</defs>
</svg>
