<svg width="30" height="36" viewBox="0 0 30 36" fill="none" xmlns="http://www.w3.org/2000/svg">
<path d="M25.3125 9.5625H20.1562V9C20.1562 7.35897 19.613 5.78516 18.646 4.62478C17.679 3.4644 16.3675 2.8125 15 2.8125C13.6325 2.8125 12.321 3.4644 11.354 4.62478C10.387 5.78516 9.84375 7.35897 9.84375 9V9.5625H4.6875C4.31454 9.5625 3.95685 9.74029 3.69313 10.0568C3.42941 10.3732 3.28125 10.8024 3.28125 11.25V28.125C3.28125 28.5726 3.42941 29.0018 3.69313 29.3182C3.95685 29.6347 4.31454 29.8125 4.6875 29.8125H25.3125C25.6855 29.8125 26.0431 29.6347 26.3069 29.3182C26.5706 29.0018 26.7188 28.5726 26.7188 28.125V11.25C26.7188 10.8024 26.5706 10.3732 26.3069 10.0568C26.0431 9.74029 25.6855 9.5625 25.3125 9.5625ZM10.7812 9C10.7812 7.65734 11.2257 6.36967 12.0169 5.42027C12.8081 4.47087 13.8811 3.9375 15 3.9375C16.1189 3.9375 17.1919 4.47087 17.9831 5.42027C18.7743 6.36967 19.2188 7.65734 19.2188 9V9.5625H10.7812V9ZM25.7812 28.125C25.7812 28.2742 25.7319 28.4173 25.644 28.5227C25.556 28.6282 25.4368 28.6875 25.3125 28.6875H4.6875C4.56318 28.6875 4.44395 28.6282 4.35604 28.5227C4.26814 28.4173 4.21875 28.2742 4.21875 28.125V11.25C4.21875 11.1008 4.26814 10.9577 4.35604 10.8523C4.44395 10.7468 4.56318 10.6875 4.6875 10.6875H9.84375V13.5C9.84375 13.6492 9.89314 13.7923 9.98104 13.8977C10.069 14.0032 10.1882 14.0625 10.3125 14.0625C10.4368 14.0625 10.556 14.0032 10.644 13.8977C10.7319 13.7923 10.7812 13.6492 10.7812 13.5V10.6875H19.2188V13.5C19.2188 13.6492 19.2681 13.7923 19.356 13.8977C19.444 14.0032 19.5632 14.0625 19.6875 14.0625C19.8118 14.0625 19.931 14.0032 20.019 13.8977C20.1069 13.7923 20.1562 13.6492 20.1562 13.5V10.6875H25.3125C25.4368 10.6875 25.556 10.7468 25.644 10.8523C25.7319 10.9577 25.7812 11.1008 25.7812 11.25V28.125Z" fill="black"/>
</svg>
