<svg width="26" height="26" viewBox="0 0 26 26" fill="none" xmlns="http://www.w3.org/2000/svg">
<path d="M25.7921 0.164794C25.7091 0.0840564 25.608 0.0304033 25.4998 0.00964061C25.3916 -0.0111221 25.2804 0.00179659 25.1783 0.0469986L0.784998 10.7854C0.536329 10.894 0.325774 11.0905 0.185066 11.3454C0.0443589 11.6004 -0.0188751 11.8998 0.00489527 12.1987C0.0286656 12.4975 0.138152 12.7796 0.316853 13.0024C0.495553 13.2252 0.733784 13.3766 0.995638 13.4338L7.70481 14.915V23.288C7.70477 23.6119 7.79081 23.9285 7.95188 24.197C8.11295 24.4655 8.3417 24.6738 8.60875 24.795C8.7806 24.8725 8.96403 24.9125 9.14919 24.9128C9.34301 24.9123 9.53475 24.8679 9.713 24.7823C9.89125 24.6967 10.0524 24.5716 10.1867 24.4145L13.557 20.488L18.7327 25.5938C18.9951 25.8541 19.3325 25.9984 19.6824 26C19.8352 25.9993 19.987 25.9724 20.1325 25.9201C20.3708 25.8353 20.5852 25.6816 20.7541 25.4744C20.9231 25.2672 21.0408 25.0138 21.0955 24.7394L25.9847 0.828242C26.0092 0.708408 26.0042 0.583336 25.9703 0.46645C25.9363 0.349565 25.8748 0.245281 25.7921 0.164794ZM0.964343 12.1014C0.957283 12.0359 0.970398 11.9697 1.0015 11.9138C1.03261 11.8578 1.07982 11.8156 1.13526 11.7941L22.1571 2.53967L8.07433 13.8928L1.1822 12.3709C1.12379 12.3613 1.07014 12.3291 1.03042 12.28C0.990691 12.2309 0.96734 12.1678 0.964343 12.1014ZM9.49464 23.6617C9.42808 23.7388 9.34261 23.7919 9.24913 23.8142C9.15565 23.8366 9.05838 23.8271 8.9697 23.787C8.88102 23.7469 8.80495 23.6781 8.75118 23.5892C8.6974 23.5003 8.66835 23.3955 8.66773 23.288V15.6651L12.83 19.7677L9.49464 23.6617ZM20.1566 24.493C20.138 24.585 20.0984 24.6698 20.0416 24.7393C19.9849 24.8087 19.913 24.8602 19.8331 24.8888C19.7532 24.9174 19.6681 24.922 19.5861 24.9023C19.5042 24.8825 19.4282 24.8389 19.3658 24.776L8.96022 14.5115L24.8123 1.7327L20.1566 24.493Z" fill="black"/>
</svg>
