<svg width="33" height="33" viewBox="0 0 33 33" fill="none" xmlns="http://www.w3.org/2000/svg">
<path d="M23.9494 19.1323L19.8244 17.0698C19.7433 17.0293 19.6528 17.011 19.5623 17.0166C19.4718 17.0223 19.3843 17.0517 19.3088 17.102L17.1638 18.5329C15.9847 17.9674 15.0339 17.0165 14.4684 15.8374L15.8993 13.6924C15.9495 13.6169 15.9789 13.5295 15.9846 13.4389C15.9903 13.3484 15.9719 13.258 15.9315 13.1768L13.869 9.0518C13.8262 8.96569 13.7602 8.89327 13.6784 8.8427C13.5966 8.79213 13.5024 8.76544 13.4062 8.76562C12.1754 8.76562 10.9951 9.25455 10.1248 10.1248C9.2545 10.9951 8.76558 12.1755 8.76558 13.4062C8.76865 16.2771 9.91045 19.0295 11.9405 21.0595C13.9705 23.0895 16.7228 24.2313 19.5937 24.2344C20.8245 24.2344 22.0048 23.7455 22.8751 22.8752C23.7454 22.0049 24.2343 20.8245 24.2343 19.5938C24.2344 19.498 24.2078 19.404 24.1575 19.3225C24.1071 19.241 24.0351 19.1751 23.9494 19.1323ZM19.5937 23.2031C16.9962 23.2004 14.506 22.1674 12.6693 20.3307C10.8326 18.494 9.79956 16.0037 9.79683 13.4062C9.79668 12.5029 10.1353 11.6323 10.7458 10.9664C11.3563 10.3006 12.1943 9.88784 13.0943 9.80977L14.8732 13.3689L13.4552 15.501C13.4079 15.5713 13.3787 15.6522 13.3702 15.7365C13.3616 15.8209 13.374 15.906 13.4062 15.9844C14.0913 17.613 15.3869 18.9087 17.0156 19.5938C17.094 19.6264 17.1793 19.6391 17.2639 19.6307C17.3485 19.6224 17.4297 19.5933 17.5003 19.5461L19.6324 18.1281L23.1915 19.907C23.1131 20.807 22.7 21.6448 22.0339 22.2551C21.3678 22.8653 20.4971 23.2036 19.5937 23.2031ZM16.5 3.60938C14.2558 3.60896 12.0504 4.19441 10.102 5.30783C8.15351 6.42125 6.52948 8.02405 5.39052 9.95769C4.25156 11.8913 3.63713 14.0888 3.60802 16.3328C3.57891 18.5767 4.13611 20.7894 5.22452 22.752L3.69054 27.3526C3.59965 27.6252 3.58646 27.9177 3.65245 28.1973C3.71844 28.4769 3.861 28.7326 4.06416 28.9358C4.26732 29.139 4.52304 29.2815 4.80267 29.3475C5.0823 29.4135 5.37478 29.4003 5.64734 29.3094L10.248 27.7754C11.969 28.729 13.8854 29.276 15.8504 29.3745C17.8154 29.4729 19.7769 29.1203 21.5846 28.3436C23.3923 27.5669 24.9982 26.3866 26.2793 24.8934C27.5603 23.4001 28.4826 21.6334 28.9754 19.7286C29.4682 17.8238 29.5184 15.8315 29.1222 13.9043C28.726 11.9771 27.894 10.1662 26.6898 8.61028C25.4856 7.05435 23.9412 5.79472 22.1749 4.92789C20.4087 4.06106 18.4674 3.61004 16.5 3.60938ZM16.5 28.3594C14.4149 28.36 12.3664 27.8109 10.5612 26.7674C10.4828 26.7222 10.3939 26.6982 10.3034 26.6978C10.2477 26.6977 10.1924 26.7069 10.1397 26.7248L5.3212 28.331C5.23035 28.3613 5.13286 28.3657 5.03965 28.3437C4.94644 28.3217 4.8612 28.2742 4.79348 28.2065C4.72576 28.1388 4.67824 28.0535 4.65624 27.9603C4.63424 27.8671 4.63864 27.7696 4.66894 27.6788L6.27511 22.8602C6.29828 22.791 6.30647 22.7176 6.29913 22.6449C6.2918 22.5722 6.26911 22.502 6.23257 22.4387C4.92508 20.1787 4.39998 17.5503 4.73874 14.9613C5.0775 12.3724 6.26117 9.96761 8.10614 8.12005C9.95111 6.27249 12.3542 5.08544 14.9427 4.74304C17.5312 4.40064 20.1603 4.92204 22.4222 6.22636C24.684 7.53067 26.4523 9.54498 27.4525 11.9568C28.4528 14.3686 28.6291 17.0431 27.9542 19.5654C27.2793 22.0877 25.7909 24.3167 23.7199 25.9068C21.6488 27.4968 19.111 28.3589 16.5 28.3594Z" fill="black"/>
</svg>
